<svg width="13" height="23" viewBox="0 0 13 23" fill="none" xmlns="http://www.w3.org/2000/svg">
<path d="M6.2832 22.9727C6.29758 22.9726 6.32205 22.9669 6.35742 22.9521C6.39205 22.9377 6.43433 22.9153 6.48438 22.8867C6.58459 22.8295 6.71305 22.7455 6.86328 22.6396C7.16361 22.4281 7.55121 22.1303 7.97754 21.7842C8.83037 21.0919 9.83887 20.2086 10.623 19.4463C11.55 18.5412 12.0363 17.9451 12.2969 17.3877L12.4912 16.9717V13.7266C12.4912 11.9447 12.488 11.0208 12.4307 10.3789C12.3735 9.73867 12.2621 9.37956 12.0469 8.72656C11.4422 6.89068 10.2979 4.89973 8.40039 2.38184C7.94798 1.7762 7.32752 1.00307 7.02148 0.65332C6.77631 0.371557 6.63433 0.214544 6.52539 0.12793C6.4715 0.0850815 6.42659 0.0602477 6.38281 0.0458984C6.33904 0.0315775 6.29432 0.027344 6.23926 0.0273438C6.13746 0.0273438 6.06831 0.0432482 5.98633 0.0996094C5.94419 0.128618 5.89843 0.16819 5.84375 0.222656L5.64648 0.43457C5.44247 0.66776 4.99716 1.2142 4.6543 1.65918C2.26778 4.73903 0.955476 7.06534 0.255859 9.46289L0.0673828 10.1182L0.0380859 13.457L0.0283203 15.6113C0.0313925 16.1381 0.043653 16.499 0.0722656 16.7676C0.100814 17.0354 0.145618 17.2103 0.213867 17.3652C0.282397 17.5207 0.374713 17.6576 0.500977 17.8516C0.699881 18.1553 1.23092 18.7309 1.89844 19.3848C2.39838 19.8744 2.97381 20.4071 3.54102 20.9014L4.10254 21.3799C4.97173 22.0993 5.46047 22.4984 5.76172 22.7178C6.06333 22.9374 6.17219 22.9727 6.2832 22.9727ZM10.082 18.2031L10.0449 15.4287L10.0088 12.6611L9.66113 11.9648C9.39196 11.4192 8.67369 10.2963 7.98633 9.29492C7.64284 8.79452 7.30721 8.32465 7.04004 7.97363C6.90663 7.79837 6.79073 7.65274 6.69922 7.54785C6.65344 7.49539 6.61401 7.45321 6.58203 7.42285C6.54938 7.39187 6.52688 7.37598 6.51465 7.37109C6.41365 7.33278 6.29163 7.32188 6.17578 7.33691C6.08899 7.34822 6.00689 7.3741 5.93945 7.41211L5.87695 7.4541L5.79883 7.5332C5.76558 7.57051 5.72512 7.61874 5.67871 7.67676C5.58679 7.7917 5.47167 7.94263 5.3418 8.12012C5.08198 8.4752 4.76127 8.93412 4.43652 9.41211C3.78645 10.369 3.12337 11.4014 2.90527 11.834C2.70095 12.2353 2.60239 12.4121 2.55371 12.8457C2.50465 13.2827 2.50586 13.9783 2.50586 15.4141C2.50586 16.1552 2.49924 16.8289 2.48828 17.3174C2.48281 17.5614 2.47658 17.7594 2.46973 17.8965C2.4663 17.965 2.46265 18.0189 2.45898 18.0557C2.45717 18.0739 2.4552 18.0891 2.45312 18.0996C2.45215 18.1045 2.45095 18.1098 2.44922 18.1143C2.44837 18.1164 2.44617 18.1204 2.44336 18.124L2.4209 18.1357C2.40664 18.1357 2.39173 18.1278 2.38086 18.1211C2.36875 18.1136 2.35485 18.1033 2.33984 18.0908C2.30926 18.0653 2.27115 18.0282 2.22852 17.9844C2.14321 17.8968 2.03699 17.7778 1.92969 17.6504C1.7156 17.3962 1.49271 17.1058 1.41797 16.9678V16.9668C1.35297 16.8406 1.3201 16.7094 1.30273 16.2686C1.28537 15.827 1.2832 15.0701 1.2832 13.6904L1.29199 12.2754C1.29621 11.8727 1.30181 11.5356 1.30957 11.2539C1.32507 10.6912 1.34884 10.3477 1.38574 10.1445C1.6936 8.43663 3.0772 5.85472 5.23145 2.96289L6.19531 1.66309L6.21582 1.63477L6.23828 1.66211L6.61816 2.12207C6.82314 2.37098 7.32015 3.02128 7.72168 3.56152C9.16817 5.51941 10.4113 7.70569 10.8945 9.15527C11.2392 10.2114 11.2831 10.6978 11.2539 13.873C11.2484 14.6869 11.2476 15.2789 11.2383 15.7217C11.2289 16.1642 11.2106 16.4598 11.1709 16.6807C11.0909 17.1265 10.9206 17.2695 10.5684 17.6943L10.1299 18.2207L10.083 18.2773L10.082 18.2031ZM6.25879 21.4961L6.00391 21.2988L5.74805 21.1094L5.7373 21.1006V15.6836H5.7334L5.74023 15.6709L5.9668 15.2402V15.2393C6.03255 15.1224 6.09694 15.0146 6.14746 14.9355C6.1727 14.8961 6.19547 14.8628 6.21289 14.8398C6.22143 14.8286 6.22944 14.8185 6.23633 14.8115C6.23964 14.8082 6.24316 14.8045 6.24707 14.8018C6.25011 14.7996 6.2583 14.7949 6.26855 14.7949C6.27728 14.7949 6.28473 14.7983 6.28906 14.8008C6.29369 14.8035 6.29793 14.8071 6.30176 14.8105C6.30959 14.8176 6.31833 14.8277 6.32715 14.8389C6.34489 14.8613 6.36683 14.8927 6.39062 14.9307C6.43858 15.0072 6.49707 15.1121 6.55566 15.2256L6.77344 15.6494L6.77734 15.6475V15.6621L6.7998 18.3701L6.82129 21.0791V21.0938L6.81055 21.1016L6.54785 21.2988L6.29297 21.4961L6.27539 21.5088L6.25879 21.4961ZM8.79297 19.3818L8.78516 19.3906L8.50781 19.6748C8.43423 19.7521 8.35887 19.8222 8.29785 19.873C8.26735 19.8985 8.23958 19.9198 8.21777 19.9346C8.20704 19.9418 8.19707 19.9478 8.18848 19.9521C8.18117 19.9559 8.16998 19.9609 8.15918 19.9609C8.14914 19.9608 8.14205 19.9555 8.13867 19.9521C8.13557 19.949 8.13395 19.9455 8.13281 19.9434C8.13062 19.939 8.12899 19.9338 8.12793 19.9297C8.12569 19.9209 8.12293 19.9087 8.12109 19.8945C8.11739 19.8659 8.11378 19.8243 8.11035 19.7715C8.10347 19.6656 8.09728 19.5124 8.0918 19.3242C8.08084 18.9479 8.07422 18.429 8.07422 17.8594C8.07422 16.6614 8.06774 16.0383 7.98438 15.5723C7.92205 15.2241 7.81627 14.9632 7.63477 14.6143L7.42773 14.2295C7.05894 13.5686 6.79384 13.1615 6.57715 12.9482C6.46904 12.8419 6.37519 12.786 6.28906 12.7695C6.20404 12.7533 6.12215 12.7744 6.03516 12.8301C5.97911 12.8657 5.8999 12.9462 5.80566 13.0635C5.71208 13.1799 5.60554 13.3304 5.49316 13.502C5.26835 13.8451 5.02231 14.2733 4.81836 14.6885L4.51367 15.3037L4.47754 17.6484L4.44141 19.999L4.44043 20.0625L4.39453 20.0186L4.08105 19.7197L3.75977 19.4277L3.75098 19.4199V12.916H3.74805L3.95117 12.5098C4.04366 12.3213 4.45021 11.6758 4.88574 11.0088C5.21288 10.5078 5.55757 9.99259 5.80078 9.64746L6.00586 9.36621C6.0785 9.26816 6.13572 9.20342 6.18652 9.17285C6.21277 9.15711 6.23961 9.14949 6.2666 9.15234C6.29337 9.1552 6.31601 9.16875 6.33691 9.1875C6.34583 9.19523 6.36093 9.2124 6.37891 9.23535C6.39779 9.25947 6.42264 9.2919 6.45215 9.33203C6.51152 9.4128 6.59202 9.52495 6.68652 9.65918C6.87552 9.92761 7.12396 10.287 7.38672 10.6738C7.90488 11.4474 8.42438 12.2599 8.54199 12.4805L8.74512 12.875L8.74902 12.873V12.8867L8.77148 16.1289L8.79297 19.3711V19.3818Z" fill="#FBFFCF" stroke="#D1A941" stroke-width="0.054762"/>
</svg>
