<svg width="76" height="76" viewBox="0 0 76 76" fill="none" xmlns="http://www.w3.org/2000/svg">
<path d="M38 76C58.9868 76 76 58.9868 76 38C76 17.0132 58.9868 0 38 0C17.0132 0 0 17.0132 0 38C0 58.9868 17.0132 76 38 76Z" fill="#E7D45E"/>
<path d="M38.0005 67.9757C54.5554 67.9757 67.9757 54.5554 67.9757 38.0005C67.9757 21.4457 54.5554 8.02539 38.0005 8.02539C21.4457 8.02539 8.02539 21.4457 8.02539 38.0005C8.02539 54.5554 21.4457 67.9757 38.0005 67.9757Z" stroke="black" stroke-width="0.713694" stroke-dasharray="3.93 7.85"/>
<path d="M38 36.3477V50.0371" stroke="black" stroke-width="1.05303" stroke-miterlimit="1"/>
<path d="M31.1562 43.1924H44.8457" stroke="black" stroke-width="1.05303" stroke-miterlimit="1"/>
<path d="M33.7891 38.9805L42.2133 47.4047" stroke="black" stroke-width="1.05303" stroke-miterlimit="1"/>
<path d="M33.7891 47.4047L42.2133 38.9805" stroke="black" stroke-width="1.05303" stroke-miterlimit="1"/>
<path d="M21.6781 37.5624C20.7485 37.4517 20.0073 37.3674 19.4547 37.3093C19.1597 37.2801 18.926 37.287 18.7536 37.33C18.576 37.3723 18.4416 37.464 18.3504 37.6051C18.254 37.7453 18.1831 37.9457 18.1378 38.2062L17.9339 39.4824C17.9146 39.6078 17.8888 39.7242 17.8562 39.8315C17.8245 39.9336 17.795 40.0039 17.7677 40.0425C17.4783 39.9767 17.132 39.8808 16.7289 39.7547L16.7306 39.3779L16.8313 39.4014C16.9603 39.4319 17.0489 39.4295 17.0971 39.3941C17.1461 39.3535 17.1823 39.2574 17.2055 39.1059L17.4233 37.6873C17.4883 37.2641 17.6461 36.9675 17.8968 36.7974C18.1475 36.6273 18.5006 36.5746 18.956 36.6391C19.3173 36.6892 19.7698 36.7721 20.3136 36.8876C20.853 36.9972 21.3001 37.0979 21.655 37.1898L21.6781 37.5624ZM21.1986 40.5291C20.9253 40.4978 20.7233 40.4722 20.5927 40.4521C20.018 40.3639 19.4422 40.23 18.8655 40.0506L18.808 39.5364C19.5672 39.6422 20.3722 39.7284 21.2231 39.7948L21.1986 40.5291Z" fill="#060606"/>
<path d="M21.806 34.3649L22.4358 33.1107C21.8312 32.807 21.25 32.5685 20.6924 32.3949C20.5034 32.3355 20.3521 32.3246 20.2386 32.3623C20.1227 32.3928 20.002 32.486 19.8764 32.6418L19.4855 33.1198C19.1832 32.9562 18.8739 32.7594 18.5575 32.5296L18.6751 32.1716L18.7637 32.225C18.8652 32.2819 18.9397 32.3045 18.987 32.2927C19.0343 32.281 19.0958 32.2291 19.1716 32.137L19.3422 31.921C19.5128 31.6991 19.6809 31.5705 19.8464 31.5354C20.0096 31.4931 20.2187 31.5301 20.4739 31.6464C20.5707 31.6891 20.7112 31.7567 20.8955 31.8492C21.6985 32.2525 22.4672 32.7301 23.2015 33.2822L22.4151 34.8482L21.806 34.3649Z" fill="#060606"/>
<path d="M24.9737 30.533C24.4813 30.1728 23.9237 29.7395 23.3009 29.2332C22.6744 28.7231 22.1728 28.2937 21.7963 27.945C21.8342 27.7508 21.8814 27.5771 21.9379 27.424L22.0616 27.301L23.6106 28.7463C23.7273 28.4662 23.8027 28.2422 23.8368 28.0741C23.8746 27.9022 23.875 27.7602 23.838 27.648C23.8046 27.532 23.7321 27.4178 23.6202 27.3054C23.4898 27.1742 23.294 27.0148 23.0329 26.8271L23.1916 26.2221L23.2928 26.1214C23.4085 26.1629 23.5782 26.296 23.8018 26.5209C24.0329 26.7533 24.1874 26.9874 24.2652 27.2231C24.3431 27.4513 24.3499 27.7055 24.2855 27.9856C24.2212 28.2658 24.082 28.5981 23.8679 28.9825L24.6844 29.736C25.033 29.3744 25.3144 28.979 25.5287 28.5498C25.7392 28.1168 25.8449 27.7283 25.8459 27.3845C25.8313 27.2498 25.7608 27.0852 25.6342 26.8905C25.5077 26.6957 25.3419 26.4953 25.1369 26.2892C24.8946 26.0455 24.6112 25.8093 24.2867 25.5803C24.3208 25.4122 24.383 25.2087 24.4734 24.9697L24.569 24.8747C24.6362 24.9048 24.735 24.9742 24.8655 25.083C24.9998 25.188 25.1303 25.3042 25.257 25.4317C25.7379 25.9152 26.0616 26.4356 26.2282 26.993C26.3949 27.543 26.3971 28.1036 26.2348 28.6751C26.0762 29.2428 25.7588 29.7895 25.2827 30.3152L24.9737 30.533Z" fill="#060606"/>
<path d="M32.5705 25.3928C32.176 24.5438 31.8583 23.869 31.6173 23.3683C31.4871 23.102 31.3584 22.9068 31.2311 22.7828C31.1018 22.6539 30.9532 22.5877 30.7852 22.5843C30.6152 22.576 30.4075 22.6211 30.1621 22.7194L28.9692 23.2167C28.8524 23.2662 28.7398 23.3053 28.6314 23.3341C28.5279 23.3607 28.4525 23.3726 28.4053 23.3697C28.3092 23.0889 28.2088 22.7439 28.1042 22.3346L28.4256 22.1381L28.4586 22.236C28.5004 22.3618 28.5491 22.4359 28.6045 22.4584C28.6648 22.4787 28.7655 22.459 28.9067 22.3991L30.2279 21.8388C30.6221 21.6716 30.9575 21.65 31.2339 21.7739C31.5104 21.8978 31.7408 22.1704 31.9253 22.5918C32.0725 22.9255 32.2399 23.354 32.4274 23.8774C32.6177 24.3939 32.767 24.8272 32.8754 25.1774L32.5705 25.3928ZM29.7946 26.5442C29.6776 26.2953 29.5932 26.11 29.5416 25.9883C29.3146 25.453 29.1259 24.8928 28.9754 24.3078L29.3827 23.9887C29.6917 24.6902 30.0415 25.4203 30.4321 26.1791L29.7946 26.5442Z" fill="#060606"/>
<path d="M40.3431 24.6064C40.8506 23.9144 41.2275 23.3612 41.4739 22.947C41.7203 22.5328 41.8628 22.211 41.9013 21.9816C41.9293 21.8148 41.9025 21.687 41.8209 21.5982C41.7445 21.5104 41.5973 21.4455 41.3792 21.4035L40.6846 21.2789C40.4404 21.2325 40.2645 21.195 40.1568 21.1662C40.0491 21.1374 39.9683 21.1077 39.9144 21.0772C39.8824 20.9807 39.9036 20.7109 39.9779 20.2678C40.0593 19.783 40.1886 19.2205 40.3657 18.5802L40.8624 18.5912C40.7661 19.1646 40.7083 19.5409 40.689 19.7198C40.6426 19.9961 40.6424 20.1891 40.6883 20.2986C40.7403 20.4038 40.8597 20.4748 41.0465 20.5115L41.8415 20.661C42.1734 20.7275 42.4031 20.8437 42.5307 21.0099C42.6643 21.1717 42.7062 21.4011 42.6563 21.6983C42.5373 22.4073 41.9409 23.4059 40.867 24.6943L40.3431 24.6064Z" fill="#060606"/>
<path d="M44.1752 25.6382C44.1321 25.6179 44.0985 25.5962 44.0743 25.5731L44.476 24.8508L45.9461 25.2278C46.1267 24.6584 46.2782 24.163 46.4008 23.7416C46.4639 23.5084 46.4835 23.3365 46.4596 23.2259C46.4406 23.1176 46.36 23.0095 46.2179 22.9017C46.1192 22.826 45.9423 22.693 45.6872 22.5027L46.2543 21.5778L46.6151 21.6864L46.564 21.7763C46.5071 21.8722 46.484 21.946 46.4947 21.9978C46.5076 22.0448 46.5622 22.1026 46.6584 22.1713L46.8461 22.3124C47.0579 22.4705 47.1859 22.6331 47.23 22.7999C47.2741 22.9668 47.246 23.1814 47.1458 23.4439C46.9036 24.107 46.4885 25.0625 45.9006 26.3107L45.5837 26.2578L45.8532 25.4995C45.0501 25.7406 44.4908 25.7868 44.1752 25.6382Z" fill="#060606"/>
<path d="M48.1397 27.1388C48.5693 27.4123 48.9681 27.633 49.3361 27.8011C49.5117 27.4327 49.6963 26.9872 49.8901 26.4644C50.0913 25.9412 50.2586 25.4478 50.3918 24.9843C50.6787 24.816 50.9539 24.7082 51.2172 24.6609L51.3291 24.7618C51.1117 25.3345 50.8469 25.932 50.5348 26.5545C50.2227 27.177 49.9531 27.6457 49.7261 27.9606C50.0085 28.0658 50.2644 28.1293 50.4939 28.1511C50.6357 28.1437 50.7756 28.0991 50.9136 28.0171C51.0516 27.9351 51.202 27.8038 51.3648 27.6232C51.5985 27.3641 51.7871 27.1391 51.9306 26.9483C52.0742 26.7574 52.2395 26.515 52.4263 26.2208C52.4597 26.2154 52.5652 26.2286 52.7428 26.2606C52.9204 26.2926 53.0245 26.3153 53.0551 26.3287L53.1611 26.4242C53.0702 26.6198 52.8973 26.8589 52.6424 27.1416C52.4371 27.3693 52.2126 27.5868 51.9688 27.794C51.7325 28.0009 51.509 28.1659 51.2982 28.2891C51.0691 28.417 50.8757 28.5131 50.7181 28.5774C50.5679 28.6413 50.4078 28.6926 50.2376 28.7314C49.9747 28.7861 49.5911 28.7143 49.0868 28.5158C48.5864 28.3209 48.0473 28.0306 47.4697 27.6451L48.1397 27.1388Z" fill="#060606"/>
<path d="M51.8661 31.6445C52.4182 31.3656 52.994 31.1429 53.5934 30.9764C54.1928 30.81 54.7125 30.7304 55.1524 30.7376C55.1286 30.3976 55.1487 30.1181 55.2126 29.8992C55.4081 29.862 55.6618 29.8388 55.9737 29.8298L56.0107 29.9C55.9726 30.1112 55.9519 30.3044 55.9485 30.4794C55.9451 30.6545 55.9582 30.7701 55.9878 30.8262C56.0437 30.8983 56.1237 30.9876 56.2276 31.0942C56.368 31.2472 56.4807 31.3761 56.5657 31.4807C56.6531 31.5899 56.7289 31.7054 56.793 31.827C56.9901 32.2011 57.0195 32.5291 56.8813 32.8111C56.7431 33.0931 56.4167 33.3696 55.9023 33.6406C55.5936 33.8032 55.205 33.9841 54.7363 34.1833C54.2676 34.3824 53.8795 34.5302 53.5718 34.6266L52.5775 32.7395L53.3212 32.518L54.1269 34.0473C54.2276 34.0002 54.4928 33.8515 54.9225 33.6012C55.3055 33.3755 55.5861 33.1709 55.7643 32.9874C55.9449 32.8086 56.0414 32.6233 56.0539 32.4315C56.071 32.2372 56.0119 32.0115 55.8763 31.7543C55.8073 31.6233 55.6827 31.4321 55.5024 31.1805L55.3852 31.0092C55.0152 31.0668 54.5604 31.1959 54.0208 31.3965C53.4884 31.5994 52.9428 31.851 52.3841 32.1513L51.8661 31.6445Z" fill="#060606"/>
<path d="M55.2733 37.1843L55.5871 39.5342C56.3094 39.4324 56.8201 39.3429 57.1191 39.2656C57.3626 39.2118 57.5449 39.1394 57.6661 39.0486C57.7932 38.9623 57.8735 38.8449 57.907 38.6964C57.9458 38.5473 57.9506 38.344 57.9216 38.0865L57.8402 37.4174C57.8123 37.2079 57.8133 37.0157 57.8433 36.8411C58.268 36.827 58.6325 36.821 58.9368 36.823L59.0411 37.1851L58.9379 37.1909C58.8055 37.1979 58.7189 37.2281 58.678 37.2816C58.6424 37.3343 58.6344 37.434 58.654 37.5808L58.749 38.352C58.7843 38.6566 58.769 38.9013 58.703 39.0861C58.6371 39.2709 58.5098 39.4159 58.3212 39.5211C58.1325 39.6263 57.868 39.7016 57.5274 39.7471C57.2759 39.7806 56.9755 39.8074 56.6262 39.8274C56.2776 39.8526 55.9462 39.8675 55.6322 39.8721L55.7046 40.4144L54.8998 40.3779L54.4664 37.132L55.2733 37.1843Z" fill="#060606"/>
</svg>
