<svg width="909" height="366" viewBox="0 0 909 366" fill="none" xmlns="http://www.w3.org/2000/svg">
<path d="M869.287 299.46C873.856 261.852 876.844 235.491 878.25 220.378C880.007 205.264 880.886 192.611 880.886 182.418C880.886 155.354 874.735 136.374 862.433 125.478C850.131 114.582 829.218 109.134 799.694 109.134H725.883L741.7 29.5243H814.983C848.374 29.5243 872.275 36.2024 886.685 49.5586C901.447 62.9148 908.828 84.8823 908.828 115.461C908.828 133.738 906.544 157.814 901.975 187.69C897.757 217.214 891.079 254.471 881.94 299.46H870.869H869.287ZM695.305 299.46C700.225 250.253 706.728 197.356 714.812 140.767C722.896 84.1793 730.804 37.2568 738.537 0H754.88L751.19 29.5243L754.88 32.6876L729.047 109.134L716.393 299.46H697.414H695.305Z" fill="#191919"/>
<path d="M487.92 221.269H635.014C635.717 203.343 635.366 187.175 633.96 172.765C632.554 158.002 629.215 146.228 623.943 137.441C618.67 128.654 611.114 122.327 601.272 118.461C591.431 114.243 578.25 112.134 561.731 112.134H487.92L488.447 91.5728C488.447 86.6521 491.259 77.5136 496.883 64.1574C502.858 50.8012 512.875 30.4154 526.934 3H542.751L530.625 30.9426V32.5243H577.547C606.369 32.5243 626.755 38.3237 638.705 49.9225C651.007 61.1698 657.157 79.974 657.157 106.335C657.157 121.097 655.752 137.089 652.94 154.312C650.128 171.183 645.207 194.908 638.178 225.486H669.284L652.413 299.824H464.195L487.92 221.269Z" fill="#191919"/>
<path d="M415.986 302.46C420.555 264.852 423.543 238.491 424.949 223.378C426.706 208.264 427.585 195.611 427.585 185.418C427.585 158.354 421.434 139.374 409.132 128.478C396.83 117.582 375.917 112.134 346.393 112.134H274.164L274.691 91.5728C274.691 86.6521 277.503 77.5136 283.127 64.1574C289.102 50.8012 299.119 30.4154 313.178 3H328.995L316.869 30.9426V32.5243H361.682C395.073 32.5243 418.974 39.2024 433.384 52.5586C448.146 65.9148 455.527 87.8823 455.527 118.461C455.527 136.738 453.243 160.814 448.674 190.69C444.456 220.214 437.778 257.471 428.639 302.46H417.568H415.986Z" fill="#191919"/>
<path d="M197.336 302.46C202.609 270.124 206.826 241.303 209.99 215.996C213.505 190.339 215.262 173.116 215.262 164.329C215.262 152.73 212.274 143.592 206.299 136.914C200.676 129.884 189.78 122.503 173.612 114.77L133.543 95.7906C136.706 82.7858 141.451 66.9692 147.778 48.3408C154.456 29.7124 160.431 14.5988 165.703 3H180.993L172.557 26.1976V28.3065L205.245 43.5959C219.655 50.274 230.024 58.1823 236.351 67.3207C242.677 76.1077 245.665 87.355 245.313 101.063C244.962 118.637 241.096 146.579 233.715 184.891C226.685 222.85 218.249 262.04 208.408 302.46H198.918H197.336Z" fill="#191919"/>
<path d="M61.1574 365.199L69.0657 305.624C73.9864 269.421 77.5012 240.249 79.6101 218.105C81.7189 195.962 82.7734 179.443 82.7734 168.547C82.7734 155.542 79.4343 144.822 72.7562 136.386C66.4296 127.599 56.061 120.043 41.6503 113.716L0 95.7906C3.16331 82.7858 7.90828 66.9692 14.2349 48.3408C20.913 29.7124 26.8882 14.5988 32.1604 3H47.4497L39.0142 26.1976V28.8338L65.9024 40.4326C83.1249 47.8136 95.0752 56.2491 101.753 65.7391C108.431 74.8775 111.77 87.1793 111.77 102.644C111.77 120.57 107.025 162.22 97.5355 227.595C88.0456 292.97 80.1373 338.839 73.8107 365.199H63.7935H61.1574Z" fill="#191919"/>
</svg>
